<svg width="100" height="100" viewBox="0 0 100 100" fill="none" xmlns="http://www.w3.org/2000/svg">
<path d="M14.5603 72.201L28.7615 64.0019C33.2406 61.4159 38.7666 61.7547 43.0223 64.69C44.772 65.8975 46.6844 66.831 48.6844 67.4775C52.0322 68.5672 55.6388 68.8378 59.1761 68.2083C61.5939 67.7749 63.976 66.9287 66.226 65.6296C73.4153 61.4789 77.3307 53.8317 77.0682 46.0749C77.0201 39.7914 79.4206 33.6732 84.2966 29.6591L84.4297 29.5485C85.1996 28.9126 84.3702 27.7198 83.509 28.217L68.7125 36.7597C64.1587 38.9303 58.8457 38.8409 54.6257 36.1683C52.9538 35.0565 51.139 34.1849 49.2481 33.5711C45.9002 32.4814 42.2936 32.2109 38.7563 32.8403C36.3386 33.2737 33.9565 34.1199 31.7064 35.419C24.5973 39.5234 20.6917 47.0412 20.857 54.7077C20.9923 60.9281 18.4196 66.894 13.628 70.8593C12.8539 71.4976 13.6907 72.7031 14.5603 72.201ZM40.4113 53.0994L30.6638 58.7272C29.7857 59.2341 28.6488 58.776 28.3995 57.7886C26.9446 52.0318 29.1412 45.8046 34.1434 42.2918C34.4972 42.0369 34.8716 41.7982 35.26 41.574C37.5987 40.2237 40.1511 39.5944 42.6707 39.6201C47.0271 39.6491 51.2653 41.6376 54.0638 45.2172C54.4779 45.7492 54.8613 46.3159 55.2099 46.9195L55.2172 46.9322C55.6437 47.671 56.5983 47.9303 57.3413 47.5014L67.1437 41.842C67.9965 41.3496 69.1048 41.7679 69.3841 42.7099C71.1233 48.6178 68.9478 55.1254 63.7932 58.7544C63.4395 59.0093 63.065 59.248 62.6767 59.4722C60.3379 60.8225 57.7856 61.4518 55.266 61.4261C50.7565 61.3954 46.3702 59.2673 43.5834 55.4446C43.5834 55.4446 43.0183 54.5438 42.527 53.6735C42.1023 52.928 41.1585 52.668 40.4155 53.097L40.4113 53.0994Z" fill="#202438"/>
</svg>
